<svg width="35" height="35" viewBox="0 0 35 35" fill="none" xmlns="http://www.w3.org/2000/svg">
<path d="M34.0047 14.3457C34.2087 15.5203 34.3105 16.7104 34.3088 17.9026C34.3088 23.2269 32.4056 27.7288 29.0938 30.776H29.0981C26.2019 33.4513 22.2206 35.0001 17.5 35.0001C12.8587 35.0001 8.40752 33.1563 5.12563 29.8744C1.84375 26.5925 0 22.1413 0 17.5001C0 12.8588 1.84375 8.40757 5.12563 5.12569C8.40752 1.8438 12.8587 5.61192e-05 17.5 5.61192e-05C21.8442 -0.0508215 26.0397 1.58125 29.2075 4.55443L24.2112 9.55068C22.4052 7.82906 19.9948 6.88629 17.5 6.92568C12.9347 6.92568 9.05625 10.0057 7.67375 14.1532C6.94073 16.3265 6.94073 18.6802 7.67375 20.8535H7.68031C9.06937 24.9944 12.9413 28.0744 17.5066 28.0744C19.8647 28.0744 21.8903 27.4707 23.4609 26.4032H23.4544C24.3664 25.799 25.1465 25.0163 25.7476 24.1023C26.3488 23.1884 26.7586 22.1621 26.9522 21.0854H17.5V14.3479H34.0047V14.3457Z" fill="#E3E3E3"/>
</svg>
