<svg width="32" height="38" viewBox="0 0 32 38" fill="none" xmlns="http://www.w3.org/2000/svg">
<path d="M23.2518 0.0190167C23.171 -0.0712333 20.2617 0.0546417 17.7299 2.80252C15.1982 5.54802 15.5877 8.69727 15.6447 8.77802C15.7017 8.85877 19.2547 8.98464 21.5228 5.79027C23.7909 2.59589 23.3325 0.111642 23.2518 0.0190167ZM31.1225 27.8849C31.0085 27.6569 25.6007 24.9541 26.1042 19.7576C26.6077 14.5588 30.0823 13.1338 30.1369 12.9794C30.1915 12.825 28.719 11.1031 27.1586 10.2315C26.013 9.61699 24.745 9.26491 23.4465 9.20077C23.19 9.19364 22.2994 8.97514 20.4683 9.47627C19.2618 9.80639 16.5424 10.8751 15.7943 10.9179C15.0438 10.9606 12.8113 9.67814 10.4102 9.33852C8.87353 9.04164 7.24428 9.64964 6.07815 10.1175C4.9144 10.583 2.7009 11.9083 1.1524 15.4304C-0.396099 18.9501 0.413776 24.5266 0.993276 26.2604C1.57278 27.9918 2.47765 30.8299 4.01665 32.9009C5.38465 35.2379 7.19915 36.86 7.95678 37.411C8.7144 37.962 10.8519 38.3278 12.3339 37.5701C13.5262 36.8386 15.6779 36.4183 16.5282 36.4491C17.376 36.48 19.048 36.8149 20.7604 37.7293C22.1165 38.1971 23.399 38.0024 24.6839 37.4799C25.9688 36.955 27.8284 34.9648 29.9991 30.9296C30.8233 29.0534 31.1985 28.0393 31.1225 27.8849Z" fill="#E3E3E3"/>
</svg>
