<svg width="16" height="16" viewBox="0 0 16 16" fill="none" xmlns="http://www.w3.org/2000/svg">
<path d="M11.3668 10.1737C12.2736 8.93608 12.6798 7.40163 12.504 5.87736C12.3282 4.35309 11.5835 2.95139 10.4188 1.95271C9.25405 0.954032 7.75525 0.432012 6.22223 0.491091C4.6892 0.550169 3.23501 1.18599 2.15058 2.27135C1.06616 3.3567 0.431465 4.81155 0.373492 6.34483C0.315519 7.87812 0.838538 9.37675 1.83791 10.5409C2.83729 11.7051 4.23931 12.4489 5.7635 12.6236C7.28768 12.7983 8.82162 12.391 10.0584 11.4832H10.0575C10.0856 11.5206 10.1156 11.5562 10.1493 11.5909L13.7549 15.197C13.9305 15.3728 14.1688 15.4716 14.4172 15.4717C14.6656 15.4718 14.9039 15.3731 15.0796 15.1975C15.2554 15.0219 15.3542 14.7836 15.3542 14.5351C15.3543 14.2867 15.2557 14.0484 15.0801 13.8726L11.4745 10.2664C11.441 10.2325 11.405 10.2012 11.3668 10.1728V10.1737ZM11.6084 6.57316C11.6084 7.24969 11.4752 7.91959 11.2163 8.54462C10.9574 9.16965 10.578 9.73756 10.0997 10.2159C9.6214 10.6943 9.05357 11.0738 8.42863 11.3327C7.80369 11.5916 7.13388 11.7248 6.45745 11.7248C5.78102 11.7248 5.11121 11.5916 4.48627 11.3327C3.86133 11.0738 3.2935 10.6943 2.81519 10.2159C2.33688 9.73756 1.95747 9.16965 1.69861 8.54462C1.43975 7.91959 1.30652 7.24969 1.30652 6.57316C1.30652 5.20686 1.8492 3.89651 2.81519 2.93039C3.78118 1.96427 5.09134 1.4215 6.45745 1.4215C7.82356 1.4215 9.13372 1.96427 10.0997 2.93039C11.0657 3.89651 11.6084 5.20686 11.6084 6.57316Z" fill="white"/>
</svg>
