<svg width="46" height="43" viewBox="0 0 46 43" fill="none" xmlns="http://www.w3.org/2000/svg">
<path d="M8.51373 40.64C8.29528 41.8716 9.52195 42.8341 10.603 42.2849L22.8977 36.0272L35.1897 42.2849C36.2707 42.8341 37.4974 41.8716 37.2789 40.6428L34.9544 27.5227L44.8182 18.2139C45.7424 17.3429 45.2663 15.7508 44.0285 15.5788L30.311 13.6482L24.1944 1.64604C24.0779 1.40274 23.8941 1.19719 23.6643 1.05326C23.4345 0.909322 23.1682 0.832916 22.8963 0.832916C22.6245 0.832916 22.3582 0.909322 22.1284 1.05326C21.8986 1.19719 21.7148 1.40274 21.5982 1.64604L15.4817 13.651L1.76422 15.5816C0.529144 15.7535 0.050237 17.3457 0.971643 18.2167L10.8382 27.5255L8.51373 40.6456V40.64ZM22.2508 32.9649L11.9277 38.2185L13.8713 27.2426C13.9169 26.9899 13.899 26.7301 13.8194 26.4858C13.7398 26.2416 13.6009 26.0204 13.4148 25.8418L5.2762 18.1584L16.6243 16.5607C16.8593 16.5256 17.0822 16.4345 17.2739 16.2954C17.4656 16.1563 17.6204 15.9732 17.725 15.7619L22.8921 5.61533L28.0649 15.7619C28.1695 15.9732 28.3243 16.1563 28.516 16.2954C28.7077 16.4345 28.9306 16.5256 29.1655 16.5607L40.5137 18.1556L32.3751 25.8391C32.1885 26.0179 32.0493 26.2396 31.9697 26.4843C31.8901 26.7291 31.8725 26.9895 31.9186 27.2426L33.8622 38.2185L23.5391 32.9649C23.3395 32.863 23.1181 32.8098 22.8935 32.8098C22.6689 32.8098 22.4476 32.863 22.248 32.9649H22.2508Z" fill="#4A4A4A"/>
</svg>
