<svg width="41" height="48" viewBox="0 0 41 48" fill="none" xmlns="http://www.w3.org/2000/svg">
<path d="M29.9237 0.0236879C29.8186 -0.0887312 26.0325 0.068064 22.7379 3.49093C19.4432 6.91084 19.9501 10.8337 20.0243 10.9343C20.0984 11.0348 24.7221 11.1916 27.6737 7.2126C30.6253 3.23355 30.0288 0.139065 29.9237 0.0236879ZM40.1662 34.7346C40.0179 34.4506 32.9804 31.0839 33.6356 24.6109C34.2908 18.135 38.8125 16.36 38.8836 16.1677C38.9547 15.9754 37.0384 13.8305 35.0079 12.7448C33.517 11.9793 31.8669 11.5408 30.1771 11.4609C29.8433 11.452 28.6843 11.1798 26.3014 11.804C24.7314 12.2152 21.1925 13.5465 20.219 13.5998C19.2423 13.653 16.3371 12.0555 13.2124 11.6324C11.2127 11.2626 9.09254 12.02 7.57502 12.6028C6.06059 13.1826 3.18008 14.8334 1.16496 19.2207C-0.850165 23.6051 0.203755 30.5514 0.95788 32.711C1.71201 34.8677 2.88955 38.403 4.89231 40.9827C6.67254 43.8938 9.03382 45.9144 10.0197 46.6007C11.0057 47.2871 13.7873 47.7427 15.7159 46.7989C17.2674 45.8877 20.0675 45.3641 21.174 45.4026C22.2774 45.441 24.4532 45.8582 26.6816 46.9971C28.4464 47.5799 30.1153 47.3374 31.7874 46.6865C33.4594 46.0327 35.8794 43.5536 38.7043 38.5272C39.7768 36.1901 40.2651 34.9269 40.1662 34.7346Z" fill="white"/>
</svg>
