<svg width="42" height="44" viewBox="0 0 42 44" fill="none" xmlns="http://www.w3.org/2000/svg">
<path d="M22.9291 19.2609L29.6954 12.7842L8.26653 1.46254C7.42817 1.0166 6.48444 0.783682 5.52534 0.785997C4.56623 0.788312 3.62374 1.02578 2.78774 1.47576L22.9291 19.2609V19.2609ZM0.773606 3.29527C0.281814 4.06486 0 4.94552 0 5.87907V38.0007C0 38.9052 0.256948 39.7673 0.721111 40.5211L20.9758 21.1333L0.773606 3.29527ZM38.6665 17.5234L32.2124 14.1144L24.9598 21.054L33.848 28.9006L38.6692 26.3538C40.4043 25.4335 41.4432 23.7832 41.4432 21.9373C41.4415 21.0298 41.1822 20.1398 40.6932 19.3624C40.2041 18.585 39.5036 17.9493 38.6665 17.5234V17.5234ZM23.0065 22.9263L2.69657 42.367C3.55395 42.843 4.52633 43.0965 5.51747 43.1022C6.45685 43.1022 7.40175 42.8748 8.26653 42.4173L31.3006 30.2493L23.0065 22.9263Z" fill="white"/>
</svg>
