<svg width="40" height="39" viewBox="0 0 40 39" fill="none" xmlns="http://www.w3.org/2000/svg">
<path d="M20 0C14.5725 0 13.89 0.02393 11.7575 0.114864C9.625 0.210584 8.1725 0.531246 6.9 1.00506C5.56523 1.48562 4.35623 2.23943 3.3575 3.2138C2.34019 4.17028 1.55277 5.3274 1.05 6.60468C0.555 7.82033 0.2175 9.21306 0.12 11.2471C0.025 13.2931 0 13.944 0 19.1464C0 24.344 0.025 24.9949 0.12 27.0361C0.22 29.075 0.555 30.4653 1.05 31.6833C1.5625 32.9421 2.245 34.0093 3.3575 35.0742C4.4675 36.1391 5.5825 36.7948 6.8975 37.283C8.1725 37.7568 9.6225 38.0798 11.7525 38.1732C13.8875 38.2641 14.5675 38.288 20 38.288C25.4325 38.288 26.11 38.2641 28.245 38.1732C30.3725 38.0774 31.83 37.7568 33.1025 37.283C34.4364 36.8022 35.6445 36.0484 36.6425 35.0742C37.755 34.0093 38.4375 32.9421 38.95 31.6833C39.4425 30.4653 39.78 29.075 39.88 27.0361C39.975 24.9949 40 24.344 40 19.144C40 13.944 39.975 13.2931 39.88 11.2495C39.78 9.21306 39.4425 7.82033 38.95 6.60468C38.4473 5.32736 37.6599 4.17023 36.6425 3.2138C35.6441 2.23907 34.435 1.48521 33.1 1.00506C31.825 0.531246 30.37 0.208191 28.2425 0.114864C26.1075 0.02393 25.43 0 19.995 0H20.0025H20ZM18.2075 3.45071H20.0025C25.3425 3.45071 25.975 3.46746 28.0825 3.56079C30.0325 3.64454 31.0925 3.95803 31.7975 4.21886C32.73 4.56585 33.3975 4.98223 34.0975 5.65227C34.7975 6.32231 35.23 6.95885 35.5925 7.85383C35.8675 8.52627 36.1925 9.5409 36.28 11.4074C36.3775 13.4247 36.3975 14.0302 36.3975 19.1392C36.3975 24.2483 36.3775 24.8561 36.28 26.8734C36.1925 28.74 35.865 29.7522 35.5925 30.427C35.2719 31.2582 34.7601 32.0098 34.095 32.6262C33.395 33.2962 32.73 33.7102 31.795 34.0572C31.095 34.3204 30.035 34.6315 28.0825 34.7177C25.975 34.8086 25.3425 34.8301 20.0025 34.8301C14.6625 34.8301 14.0275 34.8086 11.92 34.7177C9.97 34.6315 8.9125 34.3204 8.2075 34.0572C7.33875 33.7507 6.55281 33.2617 5.9075 32.6262C5.24188 32.0089 4.72931 31.2566 4.4075 30.4246C4.135 29.7522 3.8075 28.7376 3.72 26.871C3.625 24.8537 3.605 24.2483 3.605 19.1344C3.605 14.023 3.625 13.42 3.72 11.4027C3.81 9.53611 4.135 8.52148 4.41 7.84665C4.7725 6.95406 5.2075 6.31513 5.9075 5.64509C6.6075 4.97505 7.2725 4.56106 8.2075 4.21408C8.9125 3.95085 9.97 3.63976 11.92 3.55361C13.765 3.47225 14.48 3.44832 18.2075 3.44592V3.45071V3.45071ZM30.6775 6.62861C30.3623 6.62861 30.0502 6.68804 29.7591 6.80349C29.4679 6.91893 29.2033 7.08815 28.9804 7.30147C28.7576 7.5148 28.5808 7.76805 28.4602 8.04677C28.3396 8.32548 28.2775 8.62421 28.2775 8.9259C28.2775 9.22758 28.3396 9.52631 28.4602 9.80503C28.5808 10.0837 28.7576 10.337 28.9804 10.5503C29.2033 10.7636 29.4679 10.9329 29.7591 11.0483C30.0502 11.1638 30.3623 11.2232 30.6775 11.2232C31.314 11.2232 31.9245 10.9811 32.3746 10.5503C32.8246 10.1195 33.0775 9.53517 33.0775 8.9259C33.0775 8.31662 32.8246 7.7323 32.3746 7.30147C31.9245 6.87065 31.314 6.62861 30.6775 6.62861V6.62861ZM20.0025 9.31356C18.6402 9.29322 17.2872 9.53249 16.0224 10.0174C14.7577 10.5024 13.6063 11.2233 12.6354 12.1383C11.6645 13.0533 10.8934 14.144 10.3671 15.3469C9.8408 16.5499 9.56975 17.841 9.56975 19.1452C9.56975 20.4494 9.8408 21.7405 10.3671 22.9435C10.8934 24.1464 11.6645 25.2371 12.6354 26.1521C13.6063 27.0671 14.7577 27.788 16.0224 28.273C17.2872 28.7579 18.6402 28.9972 20.0025 28.9769C22.6989 28.9366 25.2705 27.883 27.1624 26.0436C29.0544 24.2042 30.1148 21.7265 30.1148 19.1452C30.1148 16.5639 29.0544 14.0862 27.1624 12.2468C25.2705 10.4074 22.6989 9.35383 20.0025 9.31356V9.31356ZM20.0025 12.7619C21.7708 12.7619 23.4667 13.4343 24.7171 14.6312C25.9675 15.828 26.67 17.4514 26.67 19.144C26.67 20.8367 25.9675 22.46 24.7171 23.6569C23.4667 24.8537 21.7708 25.5261 20.0025 25.5261C18.2342 25.5261 16.5383 24.8537 15.2879 23.6569C14.0375 22.46 13.335 20.8367 13.335 19.144C13.335 17.4514 14.0375 15.828 15.2879 14.6312C16.5383 13.4343 18.2342 12.7619 20.0025 12.7619V12.7619Z" fill="white"/>
</svg>
