<svg width="48" height="45" viewBox="0 0 48 45" fill="none" xmlns="http://www.w3.org/2000/svg">
<path d="M9.51373 41.64C9.29528 42.8716 10.522 43.8341 11.603 43.2849L23.8977 37.0272L36.1897 43.2849C37.2707 43.8341 38.4974 42.8716 38.2789 41.6428L35.9544 28.5227L45.8182 19.2139C46.7424 18.3429 46.2663 16.7508 45.0285 16.5788L31.311 14.6482L25.1944 2.64604C25.0779 2.40274 24.8941 2.19719 24.6643 2.05326C24.4345 1.90932 24.1682 1.83292 23.8963 1.83292C23.6245 1.83292 23.3582 1.90932 23.1284 2.05326C22.8986 2.19719 22.7148 2.40274 22.5982 2.64604L16.4817 14.651L2.76422 16.5816C1.52914 16.7535 1.05024 18.3457 1.97164 19.2167L11.8382 28.5255L9.51373 41.6456V41.64ZM23.2508 33.9649L12.9277 39.2185L14.8713 28.2426C14.9169 27.9899 14.899 27.7301 14.8194 27.4858C14.7398 27.2416 14.6009 27.0204 14.4148 26.8418L6.2762 19.1584L17.6243 17.5607C17.8593 17.5256 18.0822 17.4345 18.2739 17.2954C18.4656 17.1563 18.6204 16.9732 18.725 16.7619L23.8921 6.61533L29.0649 16.7619C29.1695 16.9732 29.3243 17.1563 29.516 17.2954C29.7077 17.4345 29.9306 17.5256 30.1655 17.5607L41.5137 19.1556L33.3751 26.8391C33.1885 27.0179 33.0493 27.2396 32.9697 27.4843C32.8901 27.7291 32.8725 27.9895 32.9186 28.2426L34.8622 39.2185L24.5391 33.9649C24.3395 33.863 24.1181 33.8098 23.8935 33.8098C23.6689 33.8098 23.4476 33.863 23.248 33.9649H23.2508Z" fill="#4A4A4A" stroke="black" stroke-width="2"/>
</svg>
