<svg width="40" height="39" viewBox="0 0 40 39" fill="none" xmlns="http://www.w3.org/2000/svg">
<path d="M40 19.144C40 24.2213 37.8929 29.0907 34.1421 32.6809C30.3914 36.2711 25.3043 38.288 20 38.288C14.6957 38.288 9.60859 36.2711 5.85786 32.6809C2.10714 29.0907 0 24.2213 0 19.144C0 14.0667 2.10714 9.19735 5.85786 5.60715C9.60859 2.01695 14.6957 0 20 0C25.3043 0 30.3914 2.01695 34.1421 5.60715C37.8929 9.19735 40 14.0667 40 19.144V19.144ZM20.7175 14.1331C18.7725 14.9084 14.8825 16.5117 9.0525 18.943C8.1075 19.302 7.61 19.6561 7.565 20.0007C7.49 20.5822 8.2525 20.8119 9.29 21.1254L9.7275 21.257C10.7475 21.5753 12.1225 21.9462 12.835 21.9606C13.485 21.9749 14.2075 21.7213 15.005 21.1948C20.4525 17.6747 23.265 15.8967 23.44 15.8584C23.565 15.8297 23.74 15.7962 23.855 15.8967C23.9725 15.9948 23.96 16.1839 23.9475 16.2341C23.8725 16.5428 20.88 19.2038 19.3325 20.5822C18.85 21.0129 18.5075 21.3169 18.4375 21.3863C18.2834 21.537 18.1267 21.6854 17.9675 21.8314C17.0175 22.7072 16.3075 23.3629 18.005 24.4349C18.8225 24.9518 19.4775 25.3754 20.13 25.8013C20.84 26.2656 21.55 26.7274 22.47 27.3065C22.7025 27.4501 22.9275 27.6057 23.145 27.754C23.9725 28.3188 24.72 28.8261 25.6375 28.7447C26.1725 28.6969 26.725 28.2183 27.005 26.7825C27.6675 23.3916 28.97 16.0475 29.27 13.0203C29.2883 12.7687 29.2774 12.5159 29.2375 12.2665C29.214 12.0653 29.1122 11.88 28.9525 11.7472C28.725 11.5969 28.4538 11.5191 28.1775 11.5247C27.4275 11.5367 26.27 11.9219 20.7175 14.1331V14.1331Z" fill="white"/>
</svg>
